<svg xmlns="http://www.w3.org/2000/svg" width="256" height="256"><path fill-opacity=".016" d="M0 128.004v128.004l128.25-.254 128.25-.254.254-127.75L257.008 0H0v128.004m.485.496c0 70.4.119 99.053.265 63.672.146-35.38.146-92.98 0-128C.604 29.153.485 58.1.485 128.5" fill="#1976D2" fill-rule="evenodd"/><path fill-opacity=".342" d="M94.034 42.771c-35.642 15.108-39.687 17.058-41.75 20.127C50.88 64.987 50 67.793 50 70.184c0 2.841 7.117 20.726 26.448 66.465 14.546 34.418 27.259 63.489 28.25 64.603 1.895 2.129 8.183 5.201 8.991 4.392.26-.26-.037-1.426-.66-2.59-1.788-3.341-13.037-139.441-11.874-143.655 1.28-4.633 6.032-9.861 10.608-11.669 2.113-.835 11.122-2.026 20.737-2.74 9.35-.695 17.514-1.54 18.141-1.877.784-.421.224-2.548-1.789-6.793-2.424-5.112-3.669-6.537-7.207-8.25-2.352-1.138-5.147-2.061-6.211-2.049-1.064.011-19.694 7.548-41.4 16.75M67.341 30.75c-1.721.962-17.107 13.858-34.191 28.656C11.516 78.144 1.77 87.221 1.043 89.305c-1.531 4.394-1.274 7.813.842 11.195 1.032 1.65 21.54 25.725 45.574 53.5 45.156 52.186 48.183 55.201 53.666 53.46l2.046-.649-2.041-2.173c-1.123-1.195-14.211-30.926-29.086-66.07-29.172-68.926-29.082-68.652-25.067-76.524 2.717-5.325 5.16-6.834 23.524-14.532 8.8-3.689 16.331-7.017 16.736-7.397 1.196-1.118-5.302-8.244-8.88-9.739-4.383-1.832-7.248-1.734-11.016.374M154.5 47.528c-43.13 3.76-44.336 4.031-47.787 10.752l-1.941 3.781 5.642 67.219c3.103 36.971 5.892 68.468 6.199 69.994.582 2.901 4.905 8.726 6.476 8.726.501 0 .911-2.018.911-4.484 0-6.46 22.773-134.275 24.742-138.865.908-2.117 3.102-4.956 4.876-6.309 6.23-4.752 8.235-4.774 33.058-.376C199.199 60.185 209.795 62 210.222 62c1.43 0 .796-6.458-.974-9.929-2.389-4.687-6.189-7.229-11.384-7.617-2.4-.179-21.914 1.204-43.364 3.074m4.918 12.441c-3.622 1.465-7.227 6.783-8.318 12.271-5.621 28.261-23.101 130.887-22.67 133.094.775 3.969 4.015 8.199 7.294 9.522C141.02 216.993 211.518 229 218.771 229c6.532 0 7.306-.231 10.083-3.008 2.037-2.037 3.354-4.698 4.082-8.25 3.08-15.03 23.063-129.584 23.06-132.192-.005-4.006-3.17-9.072-6.861-10.98-3.072-1.589-79.781-15.618-84.785-15.507-1.568.035-3.787.443-4.932.906" fill="#1976D2" fill-rule="evenodd"/><path fill-opacity=".164" d="M94.5 43.141c-20.9 8.839-38.999 16.99-40.221 18.112-2.819 2.59-4.66 8.093-3.823 11.427.76 3.027 52.185 124.773 53.789 127.34 1.176 1.884 5.906 4.98 7.607 4.98.693 0 .737-.924.132-2.75-1.33-4.009-12.238-134.879-11.714-140.539.312-3.366 1.32-5.872 3.39-8.43 4.899-6.052 8.069-7.085 26.868-8.752 9.335-.827 17.756-1.51 18.714-1.517 1.644-.011 1.648-.25.072-4.262-3.378-8.596-7.055-11.783-13.514-11.715-1.958.021-18.76 6.573-41.3 16.106m56.365 5.285c-38.909 3.391-39.864 3.591-43.459 9.077-2.266 3.459-2.166 5.388 4.064 78.312 5.725 67.022 5.879 68.048 10.62 71.009 1.671 1.044 1.804.886 1.323-1.582-.66-3.397 23.111-137.431 25.023-141.091C151.525 58.239 158.049 54 164.057 54c2.722 0 41.413 6.513 45.103 7.592 1.419.415 1.581-.137 1.117-3.803-1.188-9.373-5.558-12.849-15.931-12.673-3.765.064-23.332 1.554-43.481 3.31m9.136 11.697c-4.198 1.674-6.799 4.861-7.943 9.731-.601 2.555-6.228 33.559-12.505 68.897-8.927 50.259-11.215 64.94-10.507 67.411 1.097 3.825 4.221 7.314 7.803 8.714C141.42 216.663 213.413 229 219.271 229c6.717 0 11.099-3.038 12.728-8.824 2.648-9.4 24.028-133.94 23.5-136.887-.653-3.647-5.288-8.77-8.707-9.623-4.294-1.072-81.443-14.666-82.871-14.603-.781.035-2.546.512-3.92 1.06" fill="#1976D2" fill-rule="evenodd"/><path fill-opacity=".594" d="M160.5 60.546c-4.248 1.464-7.201 4.344-8.03 7.83-1.705 7.167-23.469 132.303-23.466 134.92.004 3.702 2.985 9.093 5.886 10.645 2.637 1.412 73.721 14.21 82.234 14.807 7.452.521 10.902-.964 13.383-5.762.773-1.495 6.835-33.211 13.47-70.481 12.056-67.717 12.063-67.765 10.294-71.319-3.23-6.486-4.019-6.731-45.786-14.16-21.442-3.814-40.11-7.142-41.485-7.396-1.375-.255-4.3.158-6.5.916" fill="#1976D2" fill-rule="evenodd"/></svg>